<svg xmlns="http://www.w3.org/2000/svg" viewBox="0 0 1200 1200" width="1024" height="1024">
  <defs>
    <!-- Logo 820x680, offset x+190 y+260 to center in 1200x1200 -->
    <linearGradient id="g1" x1="190.52" y1="588.96" x2="1006.705" y2="588.96" gradientUnits="userSpaceOnUse">
      <stop offset="0" stop-color="#ec1ec6"/>
      <stop offset="1" stop-color="#1d8ff9"/>
    </linearGradient>
  </defs>

  <!-- White background -->
  <rect width="1200" height="1200" fill="#ffffff"/>

  <!-- Sol dikey (x+190, y+260) -->
  <path fill="#000"
    d="M347.8,300.3c0-22,17.8-39.8,39.8-39.8c22,0,39.8,17.8,39.8,39.8v583.1c0,22-17.8,39.8-39.8,39.8c-22,0-39.8-17.8-39.8-39.8z"/>

  <!-- Sağ dikey (x+190, y+260) -->
  <path fill="#000"
    d="M780.2,300.1c0-22,17.8-39.8,39.8-39.8c22,0,39.8,17.8,39.8,39.8v578.1c0,22-17.8,39.8-39.8,39.8c-22,0-39.8-17.8-39.8-39.8z"/>

  <!-- Orta yatay (x+190, y+260) -->
  <path fill="url(#g1)"
    d="M230.3,628.8c-22,0-39.8-17.9-39.8-39.8c0-22,17.8-39.8,39.8-39.8h736.6c22,0,39.8,17.8,39.8,39.8c0,21.9-17.8,39.8-39.8,39.8z"/>

  <!-- Çapraz (x+190, y+260) -->
  <path fill="#000"
    d="M357.9,324.8c-13-17.7-9.3-42.6,8.4-55.7c17.6-13,42.5-9.3,55.6,8.4l425.4,574.9c13.1,17.6,9.4,42.6-8.3,55.6c-17.7,13.1-42.6,9.4-55.7-8.3z"/>
</svg>
